<?xml version="1.0" standalone="no"?>
<!DOCTYPE svg PUBLIC "-//W3C//DTD SVG 20010904//EN"
 "http://www.w3.org/TR/2001/REC-SVG-20010904/DTD/svg10.dtd">
<svg version="1.0" xmlns="http://www.w3.org/2000/svg"
 width="1280.000000pt" height="1126.000000pt" viewBox="0 0 1280.000000 1126.000000"
 preserveAspectRatio="xMidYMid meet">
<g transform="translate(0.000000,1126.000000) scale(0.100000,-0.100000)"
fill="#000000" stroke="none">
<path d="M6419 11250 c-10 -6 -20 -30 -24 -57 -4 -27 -11 -56 -16 -66 -12 -21
-73 -52 -194 -99 -166 -65 -205 -71 -465 -73 -212 -1 -242 -3 -310 -24 -172
-51 -293 -133 -336 -226 -13 -27 -24 -55 -24 -62 0 -6 26 3 58 20 53 30 64 32
152 32 88 0 103 -4 200 -43 162 -65 246 -83 401 -89 155 -6 231 4 362 48 49
16 93 29 99 29 11 0 10 -35 -12 -270 -16 -164 -6 -158 -212 -131 -90 12 -171
24 -180 26 -10 2 -18 2 -18 0 0 -2 24 -59 54 -127 99 -228 138 -377 138 -534
1 -185 -58 -323 -203 -479 l-60 -63 33 -11 c18 -5 83 -17 143 -26 61 -9 120
-21 133 -26 50 -20 53 -125 5 -173 -45 -46 -33 -46 -448 -2 -345 37 -493 46
-730 46 -215 0 -277 -7 -303 -34 -13 -13 -10 -21 36 -70 110 -121 147 -224
139 -385 -5 -119 -26 -191 -95 -327 -76 -151 -165 -267 -404 -526 -164 -177
-229 -241 -284 -279 l-44 -30 0 30 c0 41 -19 79 -44 88 -12 4 -126 6 -253 4
-297 -4 -289 -8 -280 118 4 47 20 228 37 401 42 435 45 481 28 503 -16 22 -81
38 -121 30 -47 -9 -61 -44 -63 -149 0 -70 -5 -99 -18 -119 -22 -34 -162 -101
-240 -116 -71 -13 -114 -7 -231 34 -216 74 -470 20 -639 -134 -65 -60 -113
-137 -102 -165 5 -12 12 -11 48 8 37 20 57 23 143 22 91 0 111 -4 215 -41 63
-22 144 -53 180 -69 60 -26 74 -28 180 -27 108 2 263 21 355 43 22 5 44 10 48
10 11 0 -1 -235 -14 -276 -19 -63 -82 -67 -309 -18 -63 14 -176 29 -251 34
-171 12 -309 33 -421 66 -48 14 -103 24 -122 22 l-35 -3 61 -100 c132 -217
237 -471 241 -585 2 -41 0 -45 -23 -49 -14 -1 -47 2 -75 8 -27 6 -126 24 -218
40 -118 21 -175 35 -189 48 -19 17 -20 26 -15 133 6 97 28 443 52 781 8 105
-5 128 -75 135 -57 6 -92 -12 -101 -51 -46 -190 -66 -227 -150 -269 -42 -20
-67 -26 -121 -26 -80 0 -110 11 -200 72 -86 59 -124 71 -211 66 -161 -9 -333
-147 -407 -326 -17 -41 -30 -76 -27 -78 2 -2 26 8 53 23 44 25 59 28 144 28
93 0 97 -1 205 -51 134 -63 137 -64 307 -74 103 -6 155 -4 210 6 63 12 75 12
95 -1 29 -20 37 -53 29 -123 -23 -202 -23 -202 -84 -202 -18 0 -141 20 -273
45 -132 25 -325 59 -427 75 -103 16 -275 48 -382 70 -146 31 -227 43 -322 47
-71 3 -128 4 -128 1 0 -2 39 -83 88 -179 141 -281 190 -458 199 -719 4 -141 2
-179 -15 -261 -39 -188 -124 -349 -271 -513 -39 -43 -71 -87 -71 -97 0 -24 46
-47 185 -92 298 -97 537 -155 989 -237 247 -46 273 -52 294 -76 25 -28 26 -39
12 -115 -16 -88 -19 -89 -255 -89 -194 0 -325 -13 -411 -41 -59 -19 -63 -30
-86 -255 -25 -245 -29 -673 -9 -919 62 -752 259 -1564 482 -1983 168 -316 320
-454 549 -498 47 -9 247 -54 445 -101 198 -46 425 -100 505 -118 80 -19 204
-48 275 -65 1597 -382 2717 -610 3625 -740 343 -49 416 -55 655 -54 256 0 310
6 553 64 423 102 819 248 1207 445 687 349 1221 786 1736 1421 152 187 198
235 291 294 97 63 173 83 298 80 286 -8 301 -7 358 24 29 17 83 62 120 101 77
81 172 217 172 246 0 33 -49 68 -185 134 -152 75 -260 118 -523 210 -106 38
-189 71 -185 75 4 4 46 19 93 35 256 85 442 196 605 360 129 131 191 243 222
408 28 150 -2 343 -86 539 -47 111 -49 133 -18 169 12 15 204 163 427 329 223
166 417 314 433 328 35 33 34 59 -3 110 -53 73 -79 76 -152 15 -66 -55 -101
-66 -186 -59 -199 16 -322 83 -424 228 -70 99 -140 138 -253 138 -153 0 -376
-135 -444 -269 l-23 -44 24 7 c12 4 59 10 103 13 99 7 121 -2 233 -90 104 -83
224 -162 344 -227 96 -53 111 -66 100 -86 -14 -25 -301 -234 -321 -234 -22 0
-58 40 -257 286 -127 155 -270 301 -364 371 -83 61 -166 105 -192 101 -15 -2
-58 -49 -136 -148 -338 -432 -684 -779 -1032 -1032 -133 -96 -304 -205 -398
-252 l-73 -37 6 38 c4 21 8 49 11 63 44 259 31 578 -33 840 -47 192 -79 229
-233 273 -170 49 -349 71 -720 87 -286 12 -306 15 -320 40 -13 24 -13 81 0
114 21 55 10 56 830 -15 332 -28 344 -28 381 7 16 15 47 65 69 111 224 469
354 943 336 1227 -16 255 -96 418 -243 498 -80 44 -463 130 -724 163 -68 9
-197 19 -286 22 l-162 6 -12 35 c-18 54 -8 228 16 277 34 69 68 80 230 79 129
0 145 -2 206 -27 36 -15 79 -27 97 -27 99 0 181 247 168 505 -12 247 -74 397
-189 456 -21 11 -113 36 -205 54 -96 20 -172 41 -181 50 -20 19 -19 27 14 389
22 243 24 291 13 302 -8 8 -39 14 -78 15 -70 2 -72 0 -123 -81 -55 -85 -191
-150 -315 -150 -61 0 -75 4 -128 36 -73 45 -125 64 -173 64 -68 0 -137 27
-170 67 -34 41 -47 92 -56 213 -11 146 -32 193 -103 229 -70 35 -484 127 -660
147 -74 8 -122 36 -133 77 -4 16 -3 70 2 120 42 398 78 850 69 866 -16 31 -67
41 -101 21z m986 -2205 c44 -24 119 -59 168 -76 104 -38 117 -51 186 -190 82
-162 96 -219 96 -389 0 -138 -1 -148 -28 -205 -34 -74 -86 -129 -152 -162 -27
-14 -58 -32 -67 -41 -23 -19 -23 -66 -1 -88 18 -17 73 -17 329 3 78 6 82 5 97
-18 13 -21 13 -36 0 -134 -8 -60 -23 -129 -33 -153 -23 -52 -61 -71 -200 -101
-52 -12 -101 -28 -109 -36 -14 -13 -9 -21 41 -73 74 -75 98 -126 105 -218 16
-208 -149 -669 -342 -959 -175 -261 -365 -443 -492 -470 -29 -6 -83 -54 -83
-74 0 -10 32 -13 465 -46 401 -30 408 -31 430 -55 14 -16 16 -29 11 -74 -4
-31 -16 -66 -26 -78 -18 -23 -21 -23 -342 -30 -177 -3 -404 -11 -503 -17 -99
-6 -234 -13 -300 -17 -66 -3 -155 -12 -199 -20 -43 -8 -95 -14 -115 -14 l-36
-1 27 -23 c14 -13 43 -27 64 -31 52 -9 157 -64 232 -120 112 -84 195 -208 238
-355 55 -190 -10 -593 -109 -664 -38 -28 -133 -26 -307 8 -74 14 -220 39 -325
56 -104 17 -200 38 -212 46 -13 8 -25 25 -29 38 -3 13 13 201 35 417 63 612
79 775 101 1039 34 406 79 850 95 929 18 90 36 121 73 121 15 0 85 -18 156
-41 147 -48 252 -110 307 -183 60 -80 93 -79 259 4 287 144 460 408 477 725
13 256 -98 669 -276 1023 -119 238 -182 321 -258 341 -58 15 -359 78 -435 91
-38 7 -79 21 -93 32 -23 18 -25 25 -20 67 13 93 24 120 51 127 14 4 98 1 187
-6 89 -7 259 -13 377 -13 177 0 222 2 252 16 38 16 78 67 78 99 0 26 30 50 54
44 12 -3 57 -26 101 -51z m741 -30 c9 -62 -4 -75 -76 -75 -32 0 -72 3 -90 6
l-32 7 89 57 c48 32 91 56 95 54 4 -3 10 -25 14 -49z m-2931 -2030 c255 -24
648 -95 707 -126 10 -5 20 -20 23 -32 3 -12 -15 -222 -40 -467 -25 -245 -81
-804 -125 -1244 -45 -439 -85 -807 -91 -818 -19 -35 -51 -38 -154 -17 -53 11
-169 31 -259 44 -89 13 -170 27 -179 31 -23 8 -21 21 9 90 108 245 77 473 -96
703 -140 185 -344 333 -565 411 -132 46 -662 162 -959 210 -71 12 -142 28
-158 36 -41 21 -52 57 -39 123 6 30 11 76 11 103 0 53 20 102 45 112 28 11 79
7 177 -14 110 -23 365 -49 519 -52 122 -3 139 4 139 61 0 20 -27 195 -60 390
-33 195 -60 368 -60 385 0 62 29 76 162 77 57 1 153 5 213 9 160 12 595 3 780
-15z m-2092 -941 c-3 -147 -12 -198 -37 -202 -36 -7 -38 11 -26 164 7 82 14
153 17 157 3 5 15 7 26 5 21 -3 22 -7 20 -124z m-1001 -1134 c164 -22 313 -40
332 -40 39 0 48 -15 39 -63 -9 -47 -30 -85 -51 -92 -11 -3 -118 3 -238 14
-120 11 -266 23 -324 26 -133 9 -150 21 -150 105 0 74 20 104 64 96 17 -3 165
-24 328 -46z"/>
</g>
</svg>
