<?xml version="1.0" standalone="no"?>
<!DOCTYPE svg PUBLIC "-//W3C//DTD SVG 20010904//EN"
 "http://www.w3.org/TR/2001/REC-SVG-20010904/DTD/svg10.dtd">
<svg version="1.0" xmlns="http://www.w3.org/2000/svg"
 width="1280.000000pt" height="1121.000000pt" viewBox="0 0 1280.000000 1121.000000"
 preserveAspectRatio="xMidYMid meet">
<g transform="translate(0.000000,1121.000000) scale(0.100000,-0.100000)"
fill="#000000" stroke="none">
<path d="M5472 11195 c-532 -96 -890 -560 -841 -1087 15 -159 68 -308 164
-466 l26 -42 -63 -27 c-131 -56 -459 -224 -603 -308 -408 -239 -718 -476
-1026 -784 -540 -540 -834 -1112 -889 -1731 -5 -63 -10 -138 -10 -167 l0 -52
-102 80 c-494 385 -1066 671 -1619 810 -64 16 -127 29 -140 29 -35 0 -93 -70
-129 -157 -61 -146 -145 -525 -206 -929 -24 -158 -28 -208 -28 -429 0 -328 33
-568 120 -873 105 -365 305 -756 534 -1037 92 -115 299 -324 411 -416 200
-166 405 -299 655 -425 l140 -71 -160 -12 c-479 -37 -825 -114 -1104 -247
-259 -122 -420 -271 -517 -475 -80 -170 -69 -266 38 -321 59 -30 152 -32 374
-9 345 36 511 25 633 -40 80 -42 120 -88 186 -209 89 -165 161 -268 254 -360
155 -155 285 -198 459 -150 89 25 138 50 261 131 152 100 337 180 510 220 75
18 243 17 304 0 96 -28 150 -105 171 -245 13 -80 105 -135 208 -122 36 4 47 2
44 -7 -51 -115 -57 -135 -57 -209 0 -139 58 -246 225 -414 157 -158 268 -199
392 -144 98 43 148 111 293 400 93 185 110 212 171 273 64 64 142 112 162 100
16 -10 1 -136 -22 -188 -12 -27 -48 -76 -79 -109 -132 -138 -246 -317 -289
-454 -34 -108 -30 -220 9 -297 69 -134 278 -238 441 -221 278 29 473 394 537
1006 6 58 13 124 16 147 l5 41 60 4 c34 1 63 -1 66 -5 6 -10 -1 -90 -28 -291
-23 -179 -24 -243 -4 -321 37 -142 135 -224 310 -261 160 -34 340 40 496 203
159 168 188 299 105 478 -62 133 -170 261 -392 464 l-150 138 -12 135 c-7 78
-37 261 -72 434 -78 392 -100 537 -107 721 l-6 152 83 -24 c478 -139 941 -163
1425 -74 61 12 114 21 119 22 12 3 8 -102 -9 -243 -20 -168 -30 -223 -95 -555
-59 -298 -84 -476 -73 -526 4 -23 -11 -41 -139 -158 -240 -221 -376 -384 -429
-518 -18 -44 -24 -78 -24 -143 0 -77 3 -92 34 -154 62 -126 239 -284 369 -330
83 -30 158 -38 225 -25 181 35 284 119 322 264 21 81 19 136 -11 373 -14 113
-24 214 -22 225 3 19 9 21 63 18 33 -1 61 -4 63 -6 2 -2 8 -50 13 -107 16
-169 38 -305 74 -453 60 -246 136 -407 239 -511 136 -135 290 -157 483 -69
289 133 298 421 26 784 -31 42 -83 103 -115 137 -31 33 -67 82 -79 109 -23 52
-38 178 -22 188 20 12 98 -36 162 -100 61 -61 78 -88 171 -273 140 -281 197
-358 293 -400 124 -55 235 -14 392 144 111 111 172 196 205 284 31 82 25 215
-13 289 l-26 53 37 0 c97 0 175 53 187 126 14 95 37 149 79 190 48 45 128 76
149 55 16 -16 63 -14 81 5 13 12 28 14 69 9 196 -23 417 -109 607 -234 123
-81 172 -106 261 -131 174 -48 304 -5 459 150 93 92 165 195 254 360 66 121
106 167 186 209 122 65 288 76 633 40 222 -23 315 -21 374 9 47 25 67 46 84
95 17 49 2 124 -46 226 -199 419 -727 654 -1621 722 l-160 12 140 71 c250 126
455 259 655 425 112 92 319 301 411 416 229 281 429 672 534 1037 87 305 120
545 120 873 0 221 -4 271 -28 429 -61 404 -145 783 -206 929 -36 87 -94 157
-129 157 -33 0 -241 -53 -372 -96 -456 -146 -932 -396 -1318 -691 -45 -36 -84
-63 -85 -61 -2 2 -8 50 -14 108 -58 512 -285 1018 -678 1510 -127 159 -441
477 -604 612 -286 236 -617 459 -926 623 l-91 48 45 61 c59 80 135 240 164
346 19 73 22 108 22 255 0 154 -3 178 -27 256 -109 358 -350 599 -704 705
-119 36 -329 45 -454 19 -268 -54 -506 -207 -644 -415 -46 -70 -125 -225 -125
-247 0 -26 -18 -12 -24 18 -10 51 -92 216 -143 287 -219 307 -618 473 -981
407z"/>
</g>
</svg>
