<?xml version="1.0" standalone="no"?>
<!DOCTYPE svg PUBLIC "-//W3C//DTD SVG 20010904//EN"
 "http://www.w3.org/TR/2001/REC-SVG-20010904/DTD/svg10.dtd">
<svg version="1.0" xmlns="http://www.w3.org/2000/svg"
 width="1280.000000pt" height="915.000000pt" viewBox="0 0 1280.000000 915.000000"
 preserveAspectRatio="xMidYMid meet">
<g transform="translate(0.000000,915.000000) scale(0.100000,-0.100000)"
fill="#000000" stroke="none">
<path d="M5995 9117 c-376 -202 -708 -612 -804 -992 -89 -357 -56 -869 86
-1310 138 -429 339 -777 630 -1093 47 -51 84 -94 82 -95 -2 -1 -92 -46 -199
-99 -188 -94 -384 -202 -495 -273 l-54 -34 39 -148 c62 -239 131 -447 214
-648 25 -60 44 -111 41 -113 -4 -4 -164 114 -285 212 -392 315 -753 703 -1007
1082 -357 532 -520 944 -600 1514 -13 97 -17 196 -18 445 0 176 4 350 8 387 8
64 10 67 39 73 16 4 47 24 68 45 l38 38 137 -75 c75 -41 139 -73 141 -70 11
11 -19 144 -43 194 -29 59 -112 143 -167 169 -23 12 -37 26 -41 44 -12 55 -84
102 -186 121 -120 21 -203 -26 -255 -145 l-27 -63 -156 -43 c-212 -58 -620
-194 -821 -273 -958 -376 -1679 -879 -2162 -1507 -69 -90 -192 -270 -184 -270
3 0 38 25 78 55 87 67 280 163 398 200 165 51 304 69 535 70 205 0 212 -1 295
-29 227 -76 400 -184 570 -355 149 -149 230 -266 335 -476 120 -242 196 -474
260 -790 l32 -160 39 -2 c22 -2 80 -7 129 -13 607 -66 1005 -525 1219 -1404
19 -77 40 -172 47 -209 10 -54 16 -67 28 -64 251 72 387 81 524 36 184 -62
302 -226 367 -511 12 -54 20 -103 17 -111 -2 -7 -30 -21 -61 -30 -31 -10 -95
-38 -144 -62 -317 -160 -389 -407 -221 -760 18 -38 35 -73 36 -76 2 -4 -64
-59 -147 -124 -82 -65 -150 -119 -150 -121 0 -3 254 101 270 111 25 15 8 -15
-105 -190 l-58 -90 89 82 c49 45 114 107 144 137 30 31 57 56 61 56 3 0 12
-72 19 -161 8 -88 17 -155 20 -147 4 7 20 110 36 228 36 271 32 265 167 255
510 -36 911 -192 1267 -492 151 -127 320 -313 320 -353 0 -9 -43 -84 -97 -166
-53 -82 -121 -187 -151 -234 l-54 -85 123 120 c68 66 127 124 130 129 11 15
17 -22 36 -227 9 -109 21 -190 24 -180 4 10 15 93 25 185 9 92 20 165 23 163
4 -2 38 -71 75 -154 38 -83 70 -150 72 -149 1 2 -18 91 -42 198 -24 107 -44
200 -44 206 0 6 34 26 76 44 149 65 292 180 339 271 59 112 57 259 -3 400 -11
25 -23 69 -27 98 l-7 54 128 -6 c190 -7 289 -49 393 -163 78 -85 132 -196 171
-351 l10 -41 93 54 c146 88 450 235 600 292 470 179 873 189 1205 31 79 -38
220 -133 291 -197 l54 -49 123 79 c594 379 1121 515 1645 424 109 -19 167 -38
258 -87 298 -160 590 -516 704 -861 31 -93 57 -213 57 -265 0 -78 17 -65 43
34 149 567 123 1234 -78 1963 -134 486 -328 971 -612 1531 l-135 267 23 43
c18 35 23 61 24 121 0 69 -3 80 -30 119 -16 23 -52 58 -79 78 -59 42 -132 53
-199 28 -32 -13 -51 -14 -82 -7 -61 14 -184 12 -250 -5 -75 -19 -190 -74 -178
-85 4 -5 80 -40 168 -78 l160 -68 6 -70 6 -69 -71 -85 c-110 -131 -310 -326
-448 -437 -506 -406 -1102 -651 -1808 -743 -217 -28 -582 -45 -765 -35 l-150
8 100 23 c257 58 549 167 834 310 146 73 438 238 459 259 6 6 -27 267 -54 430
-47 281 -120 565 -204 789 -22 60 -37 113 -33 116 5 4 59 17 120 29 437 85
880 276 1173 504 388 303 658 739 734 1185 50 293 15 632 -96 930 l-20 53
-100 -96 c-367 -353 -882 -697 -1663 -1112 -192 -102 -590 -303 -801 -403
l-141 -67 -54 34 c-192 123 -462 218 -719 254 -101 14 -476 19 -546 6 l-40 -7
-152 308 c-230 468 -367 781 -511 1164 -219 586 -343 1045 -410 1520 l-26 187
-60 -32z"/>
</g>
</svg>
